<svg xmlns="http://www.w3.org/2000/svg" viewBox="0 0 32 32">
<!-- Weller Logs mark: three beds, the sand pinching out, cut by two wells logged as wiggles. -->
<style>.t{fill:#FFFFFF}.s{fill:#9AA6B2}.a{fill:#B4541E}.i{fill:#172029}.w{stroke:#FFFFFF}
@media (prefers-color-scheme:dark){.t{fill:#172029}.s{fill:#6F7C88}.a{fill:#E07A3E}.i{fill:#E4E9EE}.w{stroke:#172029}}</style>
<rect class="t" width="32" height="32" rx="7"/>
<path d="M4 5H28V10L4 9Z" class="s"/>
<path d="M4 11L28 12V15L4 19Z" class="a"/>
<path d="M4 21L28 17V27H4Z" class="i"/>
<path d="M10.8 3.5L11 5.1L10.5 6.7L11.3 8.3L11.5 9.9L11.7 11.5L11.1 13.1L10.7 14.7L10.4 16.3L10.4 17.9L10.3 19.5L10.9 21.1L10.8 22.7L11.2 24.3L11.4 25.9L11 27.5M20.6 3.5L20.9 5.1L21.5 6.7L21 8.3L21.1 9.9L20.9 11.5L21.2 13.1L21.3 14.7L21.2 16.3L21.6 17.9L21.5 19.5L21.1 21.1L20.9 22.7L21.1 24.3L21.2 25.9L20.8 27.5" fill="none" class="w" stroke-width="2" stroke-linejoin="round"/>
</svg>
